<svg width="400" height="300" xmlns="http://www.w3.org/2000/svg">
  <!-- Fond -->
  <rect width="400" height="300" fill="#E6F3FF" rx="15" ry="15"/>
  
  <!-- Nuage -->
  <g fill="#B0C4DE">
    <circle cx="150" cy="80" r="25"/>
    <circle cx="180" cy="70" r="35"/>
    <circle cx="220" cy="70" r="35"/>
    <circle cx="250" cy="80" r="25"/>
    <rect x="125" y="70" width="150" height="35"/>
  </g>
  
  <!-- Gouttes de pluie -->
  <g fill="#4682B4" opacity="0.7">
    <ellipse cx="160" cy="140" rx="3" ry="12"/>
    <ellipse cx="180" cy="160" rx="3" ry="12"/>
    <ellipse cx="200" cy="130" rx="3" ry="12"/>
    <ellipse cx="220" cy="150" rx="3" ry="12"/>
    <ellipse cx="240" cy="170" rx="3" ry="12"/>
    
    <ellipse cx="170" cy="190" rx="3" ry="12"/>
    <ellipse cx="190" cy="210" rx="3" ry="12"/>
    <ellipse cx="210" cy="180" rx="3" ry="12"/>
    <ellipse cx="230" cy="200" rx="3" ry="12"/>
  </g>
  
  <!-- Texte -->
  <text x="200" y="250" text-anchor="middle" font-size="20" font-family="Arial, sans-serif" 
        fill="#4682B4" font-weight="bold">Pluie</text>
</svg>